<svg xmlns="http://www.w3.org/2000/svg" width="260" height="260" viewBox="0 0 260 260" shape-rendering="crispEdges"><g fill="#4f3061"><rect x="90" y="20" width="10" height="10"/><rect x="70" y="50" width="10" height="10"/><rect x="40" y="80" width="10" height="10"/><rect x="200" y="80" width="10" height="10"/><rect x="30" y="110" width="10" height="10"/><rect x="30" y="130" width="10" height="10"/><rect x="200" y="130" width="10" height="8"/><rect x="200" y="138" width="7" height="2"/><rect x="208" y="138" width="2" height="2"/><rect x="207" y="139" width="1" height="1"/><rect x="50" y="200" width="10" height="10"/><rect x="70" y="210" width="10" height="2"/><rect x="160" y="210" width="10" height="1"/><rect x="160" y="211" width="8" height="9"/><rect x="169" y="211" width="1" height="9"/><rect x="70" y="212" width="7" height="5"/><rect x="78" y="212" width="2" height="8"/><rect x="168" y="212" width="1" height="8"/><rect x="77" y="213" width="1" height="7"/><rect x="70" y="217" width="3" height="3"/><rect x="74" y="217" width="3" height="3"/><rect x="73" y="218" width="1" height="2"/></g><g fill="#4e3161"><rect x="100" y="20" width="10" height="10"/><rect x="30" y="120" width="10" height="10"/><rect x="200" y="120" width="10" height="10"/><rect x="30" y="140" width="10" height="10"/><rect x="46" y="146" width="1" height="1"/><rect x="210" y="146" width="1" height="1"/><rect x="40" y="150" width="10" height="10"/><rect x="217" y="167" width="1" height="1"/><rect x="210" y="170" width="10" height="10"/><rect x="34" y="178" width="1" height="1"/><rect x="190" y="180" width="10" height="10"/><rect x="60" y="200" width="10" height="5"/><rect x="60" y="205" width="7" height="4"/><rect x="68" y="205" width="2" height="5"/><rect x="67" y="206" width="1" height="4"/><rect x="60" y="209" width="3" height="1"/><rect x="64" y="209" width="3" height="1"/><rect x="140" y="210" width="10" height="2"/><rect x="180" y="210" width="10" height="10"/><rect x="140" y="212" width="4" height="2"/><rect x="146" y="212" width="4" height="8"/><rect x="144" y="213" width="2" height="7"/><rect x="140" y="214" width="3" height="6"/><rect x="143" y="215" width="1" height="5"/></g><g fill="#4e3060"><rect x="110" y="20" width="20" height="3"/><rect x="110" y="23" width="11" height="7"/><rect x="123" y="23" width="7" height="2"/><rect x="121" y="24" width="2" height="6"/><rect x="123" y="25" width="5" height="5"/><rect x="129" y="25" width="1" height="5"/><rect x="148" y="25" width="1" height="1"/><rect x="128" y="26" width="1" height="4"/><rect x="80" y="30" width="10" height="1"/><rect x="80" y="31" width="9" height="9"/><rect x="89" y="32" width="1" height="8"/><rect x="190" y="60" width="10" height="10"/><rect x="190" y="79" width="1" height="1"/><rect x="40" y="100" width="10" height="2"/><rect x="200" y="100" width="5" height="10"/><rect x="206" y="100" width="4" height="10"/><rect x="205" y="101" width="1" height="9"/><rect x="40" y="102" width="6" height="8"/><rect x="47" y="102" width="3" height="8"/><rect x="46" y="103" width="1" height="7"/><rect x="32" y="163" width="1" height="1"/><rect x="200" y="170" width="10" height="5"/><rect x="200" y="175" width="4" height="5"/><rect x="205" y="175" width="5" height="5"/><rect x="204" y="176" width="1" height="4"/><rect x="50" y="190" width="10" height="10"/><rect x="188" y="192" width="1" height="1"/><rect x="150" y="210" width="10" height="10"/><rect x="80" y="218" width="1" height="1"/><rect x="84" y="219" width="1" height="1"/></g><g fill="#4f3160"><rect x="130" y="20" width="10" height="10"/><rect x="142" y="20" width="1" height="1"/><rect x="150" y="20" width="10" height="9"/><rect x="165" y="24" width="1" height="1"/><rect x="150" y="29" width="8" height="1"/><rect x="159" y="29" width="1" height="1"/><rect x="170" y="30" width="10" height="10"/><rect x="70" y="40" width="10" height="10"/><rect x="182" y="40" width="1" height="1"/><rect x="180" y="50" width="3" height="10"/><rect x="184" y="50" width="6" height="10"/><rect x="183" y="51" width="1" height="9"/><rect x="60" y="60" width="10" height="6"/><rect x="57" y="66" width="1" height="1"/><rect x="60" y="66" width="5" height="2"/><rect x="66" y="66" width="4" height="4"/><rect x="65" y="67" width="1" height="3"/><rect x="60" y="68" width="4" height="2"/><rect x="64" y="69" width="1" height="1"/><rect x="50" y="70" width="10" height="6"/><rect x="50" y="76" width="7" height="4"/><rect x="58" y="76" width="2" height="4"/><rect x="57" y="77" width="1" height="3"/><rect x="40" y="90" width="10" height="7"/><rect x="40" y="97" width="4" height="3"/><rect x="45" y="97" width="5" height="3"/><rect x="44" y="98" width="1" height="2"/><rect x="45" y="197" width="1" height="1"/><rect x="180" y="197" width="1" height="1"/><rect x="170" y="210" width="10" height="3"/><rect x="170" y="213" width="7" height="7"/><rect x="178" y="213" width="2" height="7"/><rect x="177" y="214" width="1" height="6"/></g><g fill="#4f3060"><rect x="140" y="20" width="2" height="10"/><rect x="143" y="20" width="7" height="5"/><rect x="160" y="20" width="10" height="4"/><rect x="142" y="21" width="1" height="9"/><rect x="121" y="23" width="1" height="1"/><rect x="160" y="24" width="5" height="6"/><rect x="166" y="24" width="4" height="6"/><rect x="143" y="25" width="5" height="5"/><rect x="149" y="25" width="1" height="5"/><rect x="165" y="25" width="1" height="5"/><rect x="148" y="26" width="1" height="4"/><rect x="158" y="29" width="1" height="1"/><rect x="50" y="60" width="10" height="6"/><rect x="50" y="66" width="7" height="4"/><rect x="58" y="66" width="2" height="4"/><rect x="57" y="67" width="1" height="3"/><rect x="64" y="68" width="1" height="1"/><rect x="190" y="70" width="10" height="9"/><rect x="57" y="76" width="1" height="1"/><rect x="191" y="79" width="9" height="1"/><rect x="200" y="90" width="10" height="10"/><rect x="200" y="110" width="10" height="10"/><rect x="40" y="190" width="10" height="7"/><rect x="180" y="190" width="10" height="2"/><rect x="180" y="192" width="8" height="5"/><rect x="189" y="192" width="1" height="8"/><rect x="188" y="193" width="1" height="7"/><rect x="40" y="197" width="5" height="3"/><rect x="46" y="197" width="4" height="3"/><rect x="181" y="197" width="7" height="3"/><rect x="45" y="198" width="1" height="2"/><rect x="180" y="198" width="1" height="2"/><rect x="177" y="213" width="1" height="1"/></g><g fill="#4e3160"><rect x="122" y="23" width="1" height="1"/><rect x="128" y="25" width="1" height="1"/><rect x="89" y="31" width="1" height="1"/><rect x="180" y="40" width="2" height="10"/><rect x="183" y="40" width="7" height="10"/><rect x="182" y="41" width="1" height="9"/><rect x="183" y="50" width="1" height="1"/><rect x="65" y="66" width="1" height="1"/><rect x="205" y="100" width="1" height="1"/><rect x="210" y="150" width="10" height="10"/><rect x="30" y="160" width="10" height="3"/><rect x="30" y="163" width="2" height="17"/><rect x="33" y="163" width="7" height="15"/><rect x="32" y="164" width="1" height="16"/><rect x="204" y="175" width="1" height="1"/><rect x="33" y="178" width="1" height="2"/><rect x="35" y="178" width="5" height="2"/><rect x="34" y="179" width="1" height="1"/><rect x="190" y="190" width="10" height="10"/><rect x="67" y="205" width="1" height="1"/></g><g fill="#d5a707"><rect x="90" y="30" width="10" height="10"/><rect x="168" y="44" width="1" height="1"/><rect x="101" y="110" width="9" height="3"/><rect x="100" y="111" width="1" height="9"/><rect x="101" y="113" width="5" height="7"/><rect x="107" y="113" width="3" height="7"/><rect x="106" y="114" width="1" height="6"/></g><g fill="#421e42"><rect x="100" y="30" width="10" height="4"/><rect x="120" y="30" width="10" height="10"/><rect x="150" y="30" width="15" height="1"/><rect x="166" y="30" width="4" height="10"/><rect x="150" y="31" width="13" height="9"/><rect x="164" y="31" width="2" height="9"/><rect x="163" y="32" width="1" height="8"/><rect x="100" y="34" width="5" height="6"/><rect x="106" y="34" width="4" height="6"/><rect x="105" y="35" width="1" height="5"/><rect x="150" y="40" width="10" height="10"/><rect x="119" y="42" width="1" height="1"/><rect x="113" y="47" width="1" height="1"/><rect x="80" y="60" width="10" height="10"/><rect x="130" y="60" width="10" height="4"/><rect x="160" y="60" width="10" height="2"/><rect x="160" y="62" width="4" height="8"/><rect x="165" y="62" width="5" height="8"/><rect x="164" y="63" width="1" height="7"/><rect x="114" y="64" width="1" height="1"/><rect x="130" y="64" width="9" height="5"/><rect x="139" y="65" width="1" height="5"/><rect x="100" y="67" width="1" height="1"/><rect x="130" y="69" width="5" height="1"/><rect x="136" y="69" width="3" height="1"/><rect x="60" y="70" width="10" height="10"/><rect x="146" y="79" width="1" height="1"/><rect x="176" y="85" width="1" height="1"/><rect x="180" y="90" width="10" height="9"/><rect x="180" y="99" width="1" height="1"/><rect x="182" y="99" width="8" height="1"/><rect x="40" y="110" width="10" height="2"/><rect x="190" y="110" width="10" height="10"/><rect x="40" y="112" width="6" height="8"/><rect x="47" y="112" width="3" height="8"/><rect x="46" y="113" width="1" height="7"/><rect x="40" y="130" width="10" height="3"/><rect x="63" y="130" width="1" height="1"/><rect x="190" y="130" width="10" height="10"/><rect x="40" y="133" width="3" height="7"/><rect x="44" y="133" width="6" height="7"/><rect x="43" y="134" width="1" height="6"/><rect x="50" y="140" width="20" height="8"/><rect x="200" y="140" width="10" height="4"/><rect x="200" y="144" width="5" height="4"/><rect x="206" y="144" width="4" height="2"/><rect x="205" y="145" width="1" height="15"/><rect x="207" y="146" width="3" height="14"/><rect x="206" y="147" width="1" height="13"/><rect x="50" y="148" width="7" height="2"/><rect x="58" y="148" width="1" height="2"/><rect x="60" y="148" width="10" height="1"/><rect x="200" y="148" width="2" height="12"/><rect x="203" y="148" width="2" height="12"/><rect x="57" y="149" width="1" height="1"/><rect x="60" y="149" width="7" height="1"/><rect x="68" y="149" width="2" height="1"/><rect x="202" y="149" width="1" height="11"/><rect x="73" y="152" width="1" height="1"/><rect x="51" y="156" width="1" height="1"/><rect x="72" y="164" width="1" height="1"/><rect x="58" y="165" width="1" height="1"/><rect x="50" y="170" width="10" height="1"/><rect x="170" y="170" width="10" height="6"/><rect x="195" y="170" width="1" height="1"/><rect x="50" y="171" width="3" height="9"/><rect x="54" y="171" width="1" height="9"/><rect x="56" y="171" width="4" height="9"/><rect x="186" y="171" width="1" height="1"/><rect x="53" y="172" width="1" height="8"/><rect x="55" y="172" width="1" height="8"/><rect x="170" y="176" width="5" height="12"/><rect x="176" y="176" width="4" height="4"/><rect x="175" y="177" width="1" height="13"/><rect x="60" y="180" width="10" height="10"/><rect x="176" y="180" width="3" height="10"/><rect x="179" y="181" width="1" height="9"/><rect x="170" y="188" width="4" height="2"/><rect x="174" y="189" width="1" height="1"/></g><g fill="#431f43"><rect x="110" y="30" width="10" height="6"/><rect x="110" y="36" width="8" height="3"/><rect x="119" y="36" width="1" height="4"/><rect x="118" y="37" width="1" height="1"/><rect x="110" y="39" width="5" height="1"/><rect x="116" y="39" width="3" height="1"/><rect x="90" y="40" width="10" height="10"/><rect x="84" y="45" width="1" height="1"/><rect x="84" y="49" width="1" height="11"/><rect x="80" y="50" width="4" height="10"/><rect x="85" y="50" width="5" height="10"/><rect x="140" y="50" width="10" height="7"/><rect x="170" y="50" width="10" height="10"/><rect x="140" y="57" width="2" height="3"/><rect x="143" y="57" width="7" height="2"/><rect x="142" y="58" width="1" height="2"/><rect x="143" y="59" width="3" height="1"/><rect x="147" y="59" width="3" height="1"/><rect x="90" y="60" width="10" height="10"/><rect x="156" y="79" width="1" height="1"/><rect x="50" y="80" width="5" height="9"/><rect x="56" y="80" width="4" height="10"/><rect x="55" y="81" width="1" height="9"/><rect x="50" y="89" width="4" height="1"/><rect x="191" y="99" width="1" height="1"/><rect x="180" y="140" width="1" height="10"/><rect x="182" y="140" width="8" height="3"/><rect x="181" y="141" width="1" height="9"/><rect x="182" y="143" width="3" height="7"/><rect x="186" y="143" width="4" height="7"/><rect x="185" y="144" width="1" height="6"/><rect x="190" y="150" width="10" height="1"/><rect x="190" y="151" width="3" height="9"/><rect x="194" y="151" width="6" height="9"/><rect x="193" y="152" width="1" height="8"/><rect x="183" y="157" width="1" height="1"/><rect x="75" y="174" width="1" height="1"/><rect x="50" y="180" width="10" height="5"/><rect x="70" y="180" width="10" height="10"/><rect x="50" y="185" width="3" height="5"/><rect x="54" y="185" width="6" height="5"/><rect x="53" y="186" width="1" height="4"/><rect x="70" y="190" width="4" height="10"/><rect x="75" y="190" width="5" height="7"/><rect x="95" y="190" width="1" height="1"/><rect x="74" y="191" width="1" height="9"/><rect x="92" y="195" width="1" height="1"/><rect x="75" y="197" width="2" height="3"/><rect x="78" y="197" width="2" height="3"/><rect x="77" y="198" width="1" height="2"/><rect x="75" y="200" width="1" height="1"/><rect x="140" y="200" width="10" height="10"/></g><g fill="#431f42"><rect x="130" y="30" width="20" height="8"/><rect x="130" y="38" width="5" height="2"/><rect x="136" y="38" width="14" height="2"/><rect x="135" y="39" width="1" height="1"/><rect x="138" y="48" width="1" height="1"/><rect x="144" y="49" width="1" height="1"/><rect x="130" y="50" width="10" height="10"/><rect x="160" y="50" width="10" height="10"/><rect x="146" y="59" width="1" height="1"/><rect x="120" y="60" width="10" height="1"/><rect x="120" y="61" width="6" height="9"/><rect x="127" y="61" width="3" height="9"/><rect x="126" y="62" width="1" height="8"/><rect x="184" y="77" width="1" height="1"/><rect x="190" y="90" width="10" height="9"/><rect x="190" y="99" width="1" height="11"/><rect x="192" y="99" width="8" height="11"/><rect x="191" y="100" width="1" height="10"/><rect x="40" y="120" width="10" height="9"/><rect x="191" y="120" width="9" height="1"/><rect x="190" y="121" width="9" height="9"/><rect x="199" y="122" width="1" height="8"/><rect x="40" y="129" width="6" height="1"/><rect x="47" y="129" width="3" height="1"/><rect x="180" y="130" width="4" height="10"/><rect x="185" y="130" width="5" height="10"/><rect x="184" y="131" width="1" height="9"/><rect x="190" y="140" width="10" height="10"/><rect x="185" y="143" width="1" height="1"/><rect x="170" y="150" width="10" height="10"/><rect x="193" y="151" width="1" height="1"/><rect x="40" y="160" width="10" height="10"/><rect x="180" y="163" width="1" height="1"/><rect x="70" y="170" width="10" height="1"/><rect x="70" y="171" width="9" height="3"/><rect x="79" y="172" width="1" height="8"/><rect x="70" y="174" width="5" height="5"/><rect x="76" y="174" width="3" height="6"/><rect x="75" y="175" width="1" height="5"/><rect x="70" y="179" width="2" height="1"/><rect x="73" y="179" width="2" height="1"/><rect x="183" y="179" width="1" height="1"/><rect x="90" y="190" width="5" height="3"/><rect x="96" y="190" width="4" height="2"/><rect x="95" y="191" width="1" height="9"/><rect x="96" y="192" width="2" height="8"/><rect x="99" y="192" width="1" height="8"/><rect x="91" y="193" width="4" height="2"/><rect x="98" y="193" width="1" height="7"/><rect x="90" y="194" width="1" height="6"/><rect x="91" y="195" width="1" height="5"/><rect x="93" y="195" width="2" height="5"/><rect x="68" y="196" width="1" height="1"/><rect x="92" y="196" width="1" height="4"/></g><g fill="#421f42"><rect x="165" y="30" width="1" height="1"/><rect x="130" y="40" width="20" height="8"/><rect x="170" y="40" width="10" height="10"/><rect x="130" y="48" width="8" height="2"/><rect x="139" y="48" width="6" height="1"/><rect x="146" y="48" width="4" height="2"/><rect x="138" y="49" width="6" height="1"/><rect x="145" y="49" width="1" height="1"/><rect x="126" y="61" width="1" height="1"/><rect x="135" y="69" width="1" height="1"/><rect x="180" y="70" width="10" height="5"/><rect x="180" y="75" width="8" height="2"/><rect x="189" y="75" width="1" height="5"/><rect x="188" y="76" width="1" height="4"/><rect x="180" y="77" width="4" height="3"/><rect x="185" y="77" width="3" height="3"/><rect x="184" y="78" width="1" height="2"/><rect x="170" y="80" width="10" height="5"/><rect x="170" y="85" width="6" height="5"/><rect x="177" y="85" width="3" height="5"/><rect x="176" y="86" width="1" height="4"/><rect x="46" y="112" width="1" height="1"/><rect x="46" y="129" width="1" height="1"/><rect x="70" y="140" width="10" height="10"/><rect x="206" y="146" width="1" height="1"/><rect x="70" y="160" width="10" height="4"/><rect x="70" y="164" width="2" height="6"/><rect x="73" y="164" width="7" height="6"/><rect x="72" y="165" width="1" height="5"/><rect x="55" y="171" width="1" height="1"/><rect x="79" y="171" width="1" height="1"/><rect x="175" y="176" width="1" height="1"/><rect x="174" y="188" width="1" height="1"/><rect x="80" y="200" width="20" height="10"/><rect x="160" y="200" width="10" height="10"/></g><g fill="#421e43"><rect x="163" y="31" width="1" height="1"/><rect x="105" y="34" width="1" height="1"/><rect x="150" y="50" width="10" height="10"/><rect x="100" y="60" width="10" height="7"/><rect x="180" y="60" width="10" height="10"/><rect x="164" y="62" width="1" height="1"/><rect x="139" y="64" width="1" height="1"/><rect x="101" y="67" width="9" height="3"/><rect x="100" y="68" width="1" height="2"/><rect x="145" y="68" width="1" height="1"/><rect x="170" y="70" width="10" height="10"/><rect x="78" y="71" width="1" height="1"/><rect x="159" y="74" width="1" height="1"/><rect x="163" y="74" width="1" height="1"/><rect x="61" y="80" width="9" height="7"/><rect x="60" y="81" width="1" height="9"/><rect x="61" y="87" width="2" height="3"/><rect x="64" y="87" width="6" height="3"/><rect x="63" y="88" width="1" height="2"/><rect x="60" y="130" width="3" height="10"/><rect x="64" y="130" width="6" height="10"/><rect x="63" y="131" width="1" height="6"/><rect x="63" y="138" width="1" height="2"/><rect x="205" y="144" width="1" height="1"/><rect x="50" y="150" width="10" height="6"/><rect x="50" y="156" width="1" height="14"/><rect x="52" y="156" width="8" height="9"/><rect x="51" y="157" width="1" height="13"/><rect x="170" y="160" width="10" height="10"/><rect x="52" y="165" width="6" height="5"/><rect x="59" y="165" width="1" height="5"/><rect x="58" y="166" width="1" height="4"/><rect x="203" y="169" width="1" height="1"/><rect x="208" y="169" width="1" height="1"/><rect x="180" y="180" width="10" height="10"/><rect x="80" y="190" width="10" height="10"/></g><g fill="#421f43"><rect x="118" y="36" width="1" height="1"/><rect x="118" y="38" width="1" height="1"/><rect x="115" y="39" width="1" height="1"/><rect x="80" y="40" width="10" height="5"/><rect x="100" y="40" width="10" height="10"/><rect x="80" y="45" width="4" height="5"/><rect x="85" y="45" width="5" height="5"/><rect x="84" y="46" width="1" height="3"/><rect x="145" y="48" width="1" height="1"/><rect x="110" y="50" width="10" height="10"/><rect x="142" y="57" width="1" height="1"/><rect x="70" y="60" width="10" height="11"/><rect x="80" y="70" width="10" height="10"/><rect x="150" y="70" width="20" height="4"/><rect x="70" y="71" width="8" height="9"/><rect x="79" y="71" width="1" height="9"/><rect x="78" y="72" width="1" height="8"/><rect x="150" y="74" width="9" height="5"/><rect x="160" y="74" width="3" height="6"/><rect x="164" y="74" width="6" height="6"/><rect x="159" y="75" width="1" height="5"/><rect x="163" y="75" width="1" height="5"/><rect x="188" y="75" width="1" height="1"/><rect x="150" y="79" width="6" height="1"/><rect x="157" y="79" width="2" height="1"/><rect x="63" y="87" width="1" height="1"/><rect x="63" y="137" width="1" height="1"/><rect x="181" y="140" width="1" height="1"/><rect x="60" y="160" width="10" height="20"/><rect x="190" y="160" width="10" height="10"/><rect x="40" y="170" width="10" height="10"/><rect x="53" y="185" width="1" height="1"/><rect x="74" y="190" width="1" height="1"/></g><g fill="#431e42"><rect x="135" y="38" width="1" height="1"/><rect x="110" y="40" width="20" height="2"/><rect x="110" y="42" width="9" height="5"/><rect x="120" y="42" width="10" height="18"/><rect x="119" y="43" width="1" height="7"/><rect x="110" y="47" width="3" height="3"/><rect x="114" y="47" width="5" height="3"/><rect x="113" y="48" width="1" height="2"/><rect x="100" y="50" width="10" height="10"/><rect x="110" y="60" width="10" height="4"/><rect x="178" y="60" width="1" height="1"/><rect x="110" y="64" width="4" height="6"/><rect x="115" y="64" width="5" height="6"/><rect x="114" y="65" width="1" height="5"/><rect x="90" y="70" width="10" height="10"/><rect x="140" y="70" width="10" height="9"/><rect x="140" y="79" width="6" height="1"/><rect x="147" y="79" width="3" height="1"/><rect x="190" y="80" width="10" height="10"/><rect x="188" y="87" width="1" height="1"/><rect x="181" y="99" width="1" height="1"/><rect x="55" y="101" width="1" height="1"/><rect x="190" y="120" width="1" height="1"/><rect x="199" y="121" width="1" height="1"/><rect x="50" y="130" width="10" height="10"/><rect x="184" y="130" width="1" height="1"/><rect x="43" y="133" width="1" height="1"/><rect x="57" y="148" width="1" height="1"/><rect x="59" y="148" width="1" height="2"/><rect x="202" y="148" width="1" height="1"/><rect x="67" y="149" width="1" height="11"/><rect x="60" y="150" width="7" height="10"/><rect x="68" y="150" width="12" height="2"/><rect x="68" y="152" width="5" height="8"/><rect x="74" y="152" width="6" height="8"/><rect x="73" y="153" width="1" height="7"/><rect x="180" y="160" width="10" height="3"/><rect x="181" y="163" width="9" height="1"/><rect x="180" y="164" width="1" height="16"/><rect x="182" y="164" width="8" height="7"/><rect x="181" y="165" width="1" height="15"/><rect x="208" y="166" width="1" height="1"/><rect x="190" y="170" width="5" height="10"/><rect x="196" y="170" width="4" height="10"/><rect x="53" y="171" width="1" height="1"/><rect x="182" y="171" width="4" height="8"/><rect x="187" y="171" width="3" height="9"/><rect x="195" y="171" width="1" height="9"/><rect x="186" y="172" width="1" height="8"/><rect x="72" y="179" width="1" height="1"/><rect x="182" y="179" width="1" height="1"/><rect x="184" y="179" width="2" height="1"/><rect x="179" y="180" width="1" height="1"/><rect x="60" y="190" width="10" height="6"/><rect x="150" y="190" width="10" height="10"/><rect x="98" y="192" width="1" height="1"/><rect x="90" y="193" width="1" height="1"/><rect x="60" y="196" width="8" height="4"/><rect x="69" y="196" width="1" height="4"/><rect x="68" y="197" width="1" height="3"/><rect x="100" y="200" width="10" height="10"/><rect x="73" y="206" width="1" height="1"/></g><g fill="#d5a607"><rect x="160" y="40" width="10" height="4"/><rect x="160" y="44" width="8" height="6"/><rect x="169" y="44" width="1" height="6"/><rect x="168" y="45" width="1" height="5"/></g><g fill="#d5a706"><rect x="90" y="50" width="10" height="9"/><rect x="90" y="59" width="1" height="1"/><rect x="92" y="59" width="8" height="1"/><rect x="149" y="109" width="1" height="1"/><rect x="160" y="110" width="10" height="3"/><rect x="106" y="113" width="1" height="1"/><rect x="160" y="113" width="9" height="7"/><rect x="169" y="114" width="1" height="6"/><rect x="158" y="115" width="1" height="1"/><rect x="150" y="120" width="10" height="10"/></g><g fill="#d4a706"><rect x="91" y="59" width="1" height="1"/><rect x="103" y="73" width="1" height="1"/><rect x="160" y="80" width="10" height="10"/><rect x="140" y="100" width="10" height="1"/><rect x="140" y="101" width="6" height="9"/><rect x="147" y="101" width="3" height="8"/><rect x="146" y="103" width="1" height="4"/><rect x="146" y="108" width="1" height="2"/><rect x="147" y="109" width="2" height="1"/></g><g fill="#431e43"><rect x="140" y="60" width="10" height="8"/><rect x="170" y="60" width="8" height="10"/><rect x="179" y="60" width="1" height="10"/><rect x="178" y="61" width="1" height="9"/><rect x="140" y="68" width="5" height="2"/><rect x="146" y="68" width="4" height="2"/><rect x="145" y="69" width="1" height="1"/><rect x="55" y="80" width="1" height="1"/><rect x="60" y="80" width="1" height="1"/><rect x="180" y="80" width="10" height="7"/><rect x="180" y="87" width="8" height="3"/><rect x="189" y="87" width="1" height="3"/><rect x="188" y="88" width="1" height="2"/><rect x="54" y="89" width="1" height="31"/><rect x="50" y="90" width="4" height="30"/><rect x="55" y="90" width="15" height="10"/><rect x="55" y="100" width="5" height="1"/><rect x="56" y="101" width="4" height="19"/><rect x="55" y="102" width="1" height="18"/><rect x="180" y="150" width="10" height="7"/><rect x="180" y="157" width="3" height="3"/><rect x="184" y="157" width="6" height="3"/><rect x="183" y="158" width="1" height="2"/><rect x="200" y="160" width="10" height="6"/><rect x="181" y="164" width="1" height="1"/><rect x="200" y="166" width="8" height="3"/><rect x="209" y="166" width="1" height="4"/><rect x="208" y="167" width="1" height="2"/><rect x="200" y="169" width="3" height="1"/><rect x="204" y="169" width="4" height="1"/><rect x="160" y="190" width="20" height="10"/><rect x="77" y="197" width="1" height="1"/><rect x="70" y="200" width="5" height="6"/><rect x="76" y="200" width="4" height="10"/><rect x="150" y="200" width="10" height="10"/><rect x="170" y="200" width="10" height="10"/><rect x="75" y="201" width="1" height="9"/><rect x="70" y="206" width="3" height="4"/><rect x="74" y="206" width="1" height="4"/><rect x="73" y="207" width="1" height="3"/></g><g fill="#d4a707"><rect x="150" y="60" width="10" height="10"/><rect x="100" y="70" width="10" height="3"/><rect x="100" y="73" width="3" height="7"/><rect x="104" y="73" width="6" height="7"/><rect x="103" y="74" width="1" height="6"/><rect x="90" y="80" width="10" height="10"/><rect x="146" y="101" width="1" height="1"/><rect x="100" y="110" width="1" height="1"/></g><g fill="#1b151b"><rect x="110" y="70" width="10" height="10"/><rect x="137" y="73" width="1" height="1"/><rect x="120" y="80" width="10" height="10"/><rect x="150" y="80" width="10" height="5"/><rect x="150" y="85" width="6" height="3"/><rect x="157" y="85" width="3" height="5"/><rect x="156" y="86" width="1" height="4"/><rect x="150" y="88" width="1" height="2"/><rect x="152" y="88" width="4" height="2"/><rect x="151" y="89" width="1" height="1"/><rect x="140" y="90" width="10" height="10"/><rect x="170" y="90" width="1" height="10"/><rect x="172" y="90" width="8" height="7"/><rect x="171" y="91" width="1" height="9"/><rect x="172" y="97" width="4" height="3"/><rect x="177" y="97" width="3" height="3"/><rect x="176" y="98" width="1" height="2"/><rect x="180" y="110" width="10" height="10"/><rect x="139" y="116" width="1" height="1"/><rect x="112" y="121" width="1" height="1"/><rect x="119" y="126" width="1" height="1"/><rect x="150" y="130" width="10" height="10"/><rect x="135" y="143" width="1" height="1"/><rect x="152" y="144" width="1" height="1"/><rect x="149" y="146" width="1" height="1"/><rect x="120" y="150" width="10" height="3"/><rect x="121" y="153" width="9" height="7"/><rect x="120" y="154" width="1" height="6"/><rect x="108" y="158" width="1" height="1"/><rect x="160" y="160" width="10" height="10"/><rect x="139" y="174" width="1" height="1"/><rect x="80" y="180" width="10" height="1"/><rect x="140" y="180" width="10" height="10"/><rect x="160" y="180" width="10" height="10"/><rect x="80" y="181" width="2" height="9"/><rect x="83" y="181" width="7" height="9"/><rect x="82" y="182" width="1" height="1"/><rect x="82" y="184" width="1" height="6"/><rect x="130" y="200" width="10" height="4"/><rect x="130" y="204" width="8" height="6"/><rect x="139" y="204" width="1" height="6"/><rect x="138" y="205" width="1" height="5"/></g><g fill="#1b141a"><rect x="120" y="70" width="10" height="8"/><rect x="137" y="72" width="1" height="1"/><rect x="120" y="78" width="1" height="2"/><rect x="122" y="78" width="8" height="2"/><rect x="121" y="79" width="1" height="1"/><rect x="100" y="80" width="10" height="3"/><rect x="100" y="83" width="4" height="7"/><rect x="105" y="83" width="5" height="7"/><rect x="104" y="84" width="1" height="6"/><rect x="76" y="89" width="1" height="1"/><rect x="90" y="90" width="10" height="3"/><rect x="120" y="90" width="10" height="10"/><rect x="160" y="90" width="9" height="10"/><rect x="169" y="91" width="1" height="9"/><rect x="76" y="93" width="1" height="1"/><rect x="90" y="93" width="1" height="7"/><rect x="92" y="93" width="8" height="7"/><rect x="91" y="94" width="1" height="6"/><rect x="118" y="94" width="1" height="1"/><rect x="110" y="100" width="10" height="10"/><rect x="120" y="111" width="1" height="1"/><rect x="130" y="120" width="10" height="10"/><rect x="68" y="125" width="1" height="1"/><rect x="70" y="130" width="10" height="10"/><rect x="90" y="130" width="10" height="10"/><rect x="99" y="142" width="1" height="1"/><rect x="155" y="159" width="1" height="1"/><rect x="80" y="160" width="10" height="10"/><rect x="158" y="164" width="1" height="1"/><rect x="90" y="180" width="8" height="10"/><rect x="99" y="180" width="1" height="10"/><rect x="98" y="181" width="1" height="9"/><rect x="110" y="190" width="10" height="20"/><rect x="140" y="190" width="10" height="10"/><rect x="130" y="210" width="10" height="4"/><rect x="131" y="214" width="9" height="6"/><rect x="130" y="215" width="1" height="5"/></g><g fill="#1b151a"><rect x="130" y="70" width="10" height="2"/><rect x="130" y="72" width="7" height="8"/><rect x="138" y="72" width="2" height="8"/><rect x="137" y="74" width="1" height="6"/><rect x="104" y="83" width="1" height="1"/><rect x="131" y="85" width="1" height="1"/><rect x="151" y="88" width="1" height="1"/><rect x="169" y="90" width="1" height="1"/><rect x="90" y="100" width="10" height="10"/><rect x="64" y="104" width="1" height="1"/><rect x="60" y="110" width="10" height="15"/><rect x="110" y="110" width="10" height="1"/><rect x="110" y="111" width="9" height="9"/><rect x="119" y="112" width="1" height="8"/><rect x="89" y="121" width="1" height="1"/><rect x="60" y="125" width="8" height="5"/><rect x="69" y="125" width="1" height="5"/><rect x="68" y="126" width="1" height="4"/><rect x="110" y="140" width="10" height="10"/><rect x="100" y="150" width="10" height="8"/><rect x="140" y="150" width="10" height="10"/><rect x="120" y="153" width="1" height="1"/><rect x="100" y="158" width="8" height="2"/><rect x="109" y="158" width="1" height="2"/><rect x="108" y="159" width="1" height="1"/><rect x="150" y="160" width="10" height="4"/><rect x="150" y="164" width="8" height="3"/><rect x="159" y="164" width="1" height="6"/><rect x="158" y="165" width="1" height="5"/><rect x="151" y="167" width="7" height="3"/><rect x="150" y="168" width="1" height="2"/><rect x="130" y="170" width="10" height="4"/><rect x="130" y="174" width="9" height="6"/><rect x="139" y="175" width="1" height="5"/><rect x="82" y="181" width="1" height="1"/><rect x="100" y="190" width="10" height="9"/><rect x="100" y="199" width="5" height="1"/><rect x="106" y="199" width="4" height="1"/><rect x="138" y="204" width="1" height="1"/></g><g fill="#1a141a"><rect x="121" y="78" width="1" height="1"/><rect x="111" y="83" width="1" height="1"/><rect x="110" y="90" width="10" height="4"/><rect x="91" y="93" width="1" height="1"/><rect x="110" y="94" width="8" height="6"/><rect x="119" y="94" width="1" height="6"/><rect x="118" y="95" width="1" height="5"/><rect x="70" y="100" width="10" height="10"/><rect x="130" y="100" width="10" height="10"/><rect x="120" y="110" width="10" height="1"/><rect x="170" y="110" width="10" height="10"/><rect x="121" y="111" width="9" height="9"/><rect x="120" y="112" width="1" height="8"/><rect x="100" y="120" width="10" height="10"/><rect x="175" y="127" width="1" height="1"/><rect x="100" y="130" width="5" height="5"/><rect x="106" y="130" width="4" height="10"/><rect x="120" y="130" width="10" height="10"/><rect x="105" y="131" width="1" height="9"/><rect x="101" y="135" width="4" height="5"/><rect x="100" y="136" width="1" height="4"/><rect x="169" y="139" width="1" height="11"/><rect x="80" y="140" width="10" height="12"/><rect x="160" y="140" width="9" height="10"/><rect x="150" y="150" width="10" height="9"/><rect x="80" y="152" width="4" height="8"/><rect x="85" y="152" width="5" height="8"/><rect x="84" y="153" width="1" height="7"/><rect x="150" y="159" width="5" height="1"/><rect x="156" y="159" width="4" height="1"/><rect x="121" y="160" width="1" height="1"/><rect x="128" y="166" width="1" height="1"/><rect x="80" y="170" width="10" height="10"/><rect x="110" y="170" width="10" height="5"/><rect x="110" y="175" width="6" height="5"/><rect x="117" y="175" width="3" height="2"/><rect x="116" y="176" width="1" height="4"/><rect x="117" y="177" width="2" height="3"/><rect x="119" y="178" width="1" height="2"/><rect x="169" y="178" width="1" height="1"/><rect x="98" y="180" width="1" height="1"/><rect x="130" y="180" width="10" height="10"/><rect x="152" y="186" width="1" height="1"/></g><g fill="#1b141b"><rect x="70" y="80" width="20" height="9"/><rect x="156" y="85" width="1" height="1"/><rect x="70" y="89" width="6" height="11"/><rect x="77" y="89" width="13" height="1"/><rect x="76" y="90" width="4" height="3"/><rect x="171" y="90" width="1" height="1"/><rect x="77" y="93" width="3" height="7"/><rect x="76" y="94" width="1" height="6"/><rect x="176" y="97" width="1" height="1"/><rect x="107" y="99" width="1" height="1"/><rect x="80" y="100" width="10" height="10"/><rect x="110" y="120" width="10" height="1"/><rect x="160" y="120" width="10" height="10"/><rect x="180" y="120" width="9" height="10"/><rect x="110" y="121" width="2" height="9"/><rect x="113" y="121" width="7" height="5"/><rect x="189" y="121" width="1" height="9"/><rect x="112" y="122" width="1" height="8"/><rect x="113" y="126" width="6" height="4"/><rect x="119" y="127" width="1" height="3"/><rect x="140" y="130" width="10" height="1"/><rect x="140" y="131" width="9" height="2"/><rect x="149" y="132" width="1" height="8"/><rect x="140" y="133" width="3" height="7"/><rect x="144" y="133" width="5" height="7"/><rect x="143" y="134" width="1" height="6"/><rect x="90" y="140" width="7" height="10"/><rect x="98" y="140" width="2" height="2"/><rect x="130" y="140" width="10" height="3"/><rect x="150" y="140" width="10" height="4"/><rect x="97" y="141" width="1" height="9"/><rect x="98" y="142" width="1" height="8"/><rect x="99" y="143" width="1" height="7"/><rect x="130" y="143" width="5" height="7"/><rect x="136" y="143" width="4" height="7"/><rect x="135" y="144" width="1" height="6"/><rect x="150" y="144" width="2" height="6"/><rect x="153" y="144" width="7" height="6"/><rect x="152" y="145" width="1" height="5"/><rect x="160" y="150" width="10" height="10"/><rect x="140" y="170" width="10" height="10"/><rect x="100" y="180" width="10" height="10"/><rect x="130" y="214" width="1" height="1"/></g><g fill="#1a151a"><rect x="110" y="80" width="10" height="3"/><rect x="130" y="80" width="10" height="5"/><rect x="144" y="81" width="1" height="1"/><rect x="110" y="83" width="1" height="7"/><rect x="112" y="83" width="8" height="7"/><rect x="111" y="84" width="1" height="6"/><rect x="130" y="85" width="1" height="5"/><rect x="132" y="85" width="8" height="5"/><rect x="131" y="86" width="1" height="4"/><rect x="60" y="100" width="10" height="4"/><rect x="150" y="100" width="10" height="10"/><rect x="180" y="100" width="10" height="10"/><rect x="163" y="102" width="1" height="1"/><rect x="60" y="104" width="4" height="6"/><rect x="65" y="104" width="5" height="6"/><rect x="64" y="105" width="1" height="5"/><rect x="119" y="111" width="1" height="1"/><rect x="80" y="120" width="10" height="1"/><rect x="170" y="120" width="10" height="7"/><rect x="80" y="121" width="9" height="9"/><rect x="89" y="122" width="1" height="8"/><rect x="170" y="127" width="5" height="13"/><rect x="176" y="127" width="4" height="13"/><rect x="175" y="128" width="1" height="12"/><rect x="105" y="130" width="1" height="1"/><rect x="110" y="150" width="10" height="10"/><rect x="130" y="150" width="10" height="10"/><rect x="95" y="158" width="1" height="1"/><rect x="120" y="160" width="1" height="10"/><rect x="122" y="160" width="8" height="6"/><rect x="121" y="161" width="1" height="9"/><rect x="122" y="166" width="6" height="4"/><rect x="129" y="166" width="1" height="4"/><rect x="128" y="167" width="1" height="3"/><rect x="150" y="167" width="1" height="1"/><rect x="100" y="170" width="10" height="10"/><rect x="116" y="175" width="1" height="1"/><rect x="120" y="180" width="10" height="10"/><rect x="150" y="180" width="10" height="6"/><rect x="113" y="183" width="1" height="1"/><rect x="150" y="186" width="2" height="4"/><rect x="153" y="186" width="7" height="4"/><rect x="152" y="187" width="1" height="3"/><rect x="105" y="199" width="1" height="1"/><rect x="110" y="210" width="10" height="10"/><rect x="122" y="216" width="1" height="1"/></g><g fill="#1a151b"><rect x="140" y="80" width="10" height="1"/><rect x="140" y="81" width="4" height="9"/><rect x="145" y="81" width="5" height="9"/><rect x="144" y="82" width="1" height="8"/><rect x="130" y="90" width="10" height="10"/><rect x="160" y="100" width="20" height="2"/><rect x="160" y="102" width="3" height="8"/><rect x="164" y="102" width="16" height="7"/><rect x="163" y="103" width="1" height="7"/><rect x="164" y="109" width="8" height="1"/><rect x="173" y="109" width="7" height="1"/><rect x="130" y="110" width="10" height="6"/><rect x="130" y="116" width="9" height="4"/><rect x="139" y="117" width="1" height="3"/><rect x="70" y="120" width="10" height="10"/><rect x="140" y="120" width="10" height="10"/><rect x="120" y="140" width="10" height="10"/><rect x="140" y="140" width="10" height="6"/><rect x="170" y="140" width="10" height="10"/><rect x="140" y="146" width="9" height="4"/><rect x="149" y="147" width="1" height="3"/><rect x="90" y="150" width="10" height="8"/><rect x="90" y="158" width="5" height="2"/><rect x="96" y="158" width="4" height="2"/><rect x="95" y="159" width="1" height="1"/><rect x="110" y="180" width="10" height="3"/><rect x="82" y="183" width="1" height="1"/><rect x="110" y="183" width="3" height="7"/><rect x="114" y="183" width="6" height="7"/><rect x="113" y="184" width="1" height="6"/><rect x="120" y="190" width="20" height="10"/><rect x="122" y="204" width="1" height="1"/><rect x="120" y="210" width="10" height="6"/><rect x="120" y="216" width="2" height="4"/><rect x="123" y="216" width="7" height="4"/><rect x="122" y="217" width="1" height="3"/></g><g fill="#bf9609"><rect x="80" y="90" width="10" height="10"/></g><g fill="#1a141b"><rect x="100" y="90" width="10" height="9"/><rect x="100" y="99" width="7" height="1"/><rect x="108" y="99" width="2" height="1"/><rect x="120" y="100" width="10" height="10"/><rect x="172" y="109" width="1" height="1"/><rect x="70" y="110" width="10" height="10"/><rect x="50" y="120" width="10" height="10"/><rect x="120" y="120" width="10" height="10"/><rect x="189" y="120" width="1" height="1"/><rect x="80" y="130" width="10" height="10"/><rect x="160" y="130" width="10" height="9"/><rect x="149" y="131" width="1" height="1"/><rect x="143" y="133" width="1" height="1"/><rect x="100" y="135" width="1" height="1"/><rect x="160" y="139" width="9" height="1"/><rect x="97" y="140" width="1" height="1"/><rect x="100" y="140" width="10" height="10"/><rect x="84" y="152" width="1" height="1"/><rect x="90" y="160" width="10" height="10"/><rect x="160" y="170" width="10" height="8"/><rect x="119" y="177" width="1" height="1"/><rect x="160" y="178" width="9" height="2"/><rect x="169" y="179" width="1" height="1"/><rect x="120" y="200" width="10" height="4"/><rect x="120" y="204" width="2" height="6"/><rect x="123" y="204" width="7" height="6"/><rect x="122" y="205" width="1" height="5"/></g><g fill="#d4a606"><rect x="150" y="90" width="10" height="10"/><rect x="100" y="100" width="10" height="10"/><rect x="146" y="102" width="1" height="1"/><rect x="146" y="107" width="1" height="1"/><rect x="90" y="110" width="10" height="12"/><rect x="91" y="122" width="9" height="1"/><rect x="90" y="123" width="7" height="7"/><rect x="98" y="123" width="2" height="7"/><rect x="97" y="124" width="1" height="6"/></g><g fill="#4f3161"><rect x="44" y="97" width="1" height="1"/><rect x="40" y="140" width="10" height="6"/><rect x="210" y="140" width="10" height="6"/><rect x="40" y="146" width="6" height="4"/><rect x="47" y="146" width="3" height="4"/><rect x="211" y="146" width="9" height="4"/><rect x="46" y="147" width="1" height="3"/><rect x="210" y="147" width="1" height="3"/><rect x="40" y="180" width="10" height="10"/><rect x="200" y="180" width="10" height="10"/><rect x="180" y="200" width="10" height="10"/><rect x="63" y="209" width="1" height="1"/><rect x="90" y="210" width="10" height="10"/><rect x="168" y="211" width="1" height="1"/><rect x="73" y="217" width="1" height="1"/></g><g fill="#4e3061"><rect x="46" y="102" width="1" height="1"/><rect x="207" y="138" width="1" height="1"/><rect x="210" y="160" width="10" height="7"/><rect x="210" y="167" width="7" height="3"/><rect x="218" y="167" width="2" height="3"/><rect x="217" y="168" width="1" height="2"/><rect x="30" y="180" width="10" height="10"/><rect x="80" y="210" width="10" height="8"/><rect x="100" y="210" width="10" height="10"/><rect x="77" y="212" width="1" height="1"/><rect x="144" y="212" width="2" height="1"/><rect x="143" y="214" width="1" height="1"/><rect x="81" y="218" width="9" height="1"/><rect x="80" y="219" width="4" height="1"/><rect x="85" y="219" width="5" height="1"/></g><g fill="#d4a607"><rect x="80" y="110" width="10" height="10"/><rect x="140" y="110" width="10" height="10"/><rect x="90" y="122" width="1" height="1"/></g><g fill="#d5a606"><rect x="150" y="110" width="10" height="5"/><rect x="169" y="113" width="1" height="1"/><rect x="150" y="115" width="8" height="5"/><rect x="159" y="115" width="1" height="5"/><rect x="158" y="116" width="1" height="4"/><rect x="97" y="123" width="1" height="1"/></g><g fill="#1f1e1e"><rect x="110" y="130" width="10" height="7"/><rect x="110" y="137" width="2" height="3"/><rect x="113" y="137" width="7" height="3"/><rect x="112" y="138" width="1" height="2"/></g><g fill="#1f1f1f"><rect x="130" y="130" width="10" height="10"/></g><g fill="#1e1e1e"><rect x="112" y="137" width="1" height="1"/></g><g fill="#6175ab"><rect x="100" y="160" width="10" height="10"/><rect x="132" y="160" width="1" height="1"/></g><g fill="#6074aa"><rect x="110" y="160" width="1" height="1"/><rect x="117" y="166" width="1" height="1"/><rect x="120" y="170" width="10" height="10"/><rect x="152" y="178" width="1" height="1"/></g><g fill="#6074ab"><rect x="111" y="160" width="9" height="5"/><rect x="110" y="161" width="1" height="9"/><rect x="111" y="165" width="5" height="5"/><rect x="117" y="165" width="3" height="1"/><rect x="116" y="166" width="1" height="4"/><rect x="118" y="166" width="2" height="4"/><rect x="117" y="167" width="1" height="3"/></g><g fill="#6175aa"><rect x="130" y="160" width="2" height="10"/><rect x="133" y="160" width="7" height="10"/><rect x="132" y="161" width="1" height="9"/></g><g fill="#6075ab"><rect x="140" y="160" width="10" height="10"/><rect x="92" y="171" width="1" height="1"/></g><g fill="#6174ab"><rect x="116" y="165" width="1" height="1"/></g><g fill="#6075aa"><rect x="90" y="170" width="10" height="1"/><rect x="150" y="170" width="10" height="8"/><rect x="90" y="171" width="2" height="9"/><rect x="93" y="171" width="7" height="9"/><rect x="92" y="172" width="1" height="8"/><rect x="150" y="178" width="2" height="2"/><rect x="153" y="178" width="7" height="2"/><rect x="152" y="179" width="1" height="1"/></g></svg>